<svg width="57" height="56" viewBox="0 0 57 56" fill="none" xmlns="http://www.w3.org/2000/svg">
<g clip-path="url(#clip0_2004_367)">
<path d="M33.6997 39.7293C33.9798 39.64 36.2046 38.9802 38.1114 40.7706C38.8314 41.4466 39.2776 42.2575 39.5535 42.9587C39.8385 43.683 39.2785 44.4626 38.5002 44.4626H30.2071C29.4472 44.4626 28.9078 43.7218 29.1413 42.9986L29.8297 40.8654C31.1196 40.4866 32.4097 40.1079 33.6997 39.7293Z" fill="#F7BC23"/>
<path opacity="0.09" d="M37.0005 42.8851C36.8381 42.3237 37.1108 41.7297 37.654 41.514C37.9591 41.3928 38.2676 41.2629 38.4875 41.1593C38.3643 41.0248 38.2411 40.8904 38.1067 40.7673C36.2027 38.9753 33.9851 39.6361 33.7051 39.7257C32.4221 40.1018 31.1504 40.4777 29.8786 40.8537C29.8598 40.8587 29.8436 40.8577 29.8246 40.8633L29.1413 43.0025C28.9062 43.7193 29.4437 44.4585 30.2053 44.4585H36.0853C37.2151 44.4584 37.2099 43.6088 37.0005 42.8851Z" fill="black"/>
<path d="M34.6363 44.4576H26.3565C25.5966 44.4576 25.0603 43.7201 25.2949 42.9938L25.4961 42.3569L25.9766 40.8708C27.2728 40.4908 28.5577 40.1109 29.8427 39.731C30.1221 39.6416 32.3457 38.9823 34.2452 40.7701C34.7257 41.2283 35.0833 41.7311 35.3403 42.2227C35.4855 42.4798 35.5973 42.7256 35.6867 42.9603C35.9996 43.776 35.5079 44.4576 34.6363 44.4576Z" fill="#FFD731"/>
<path opacity="0.09" d="M34.2452 40.7703C32.3457 38.9825 30.122 39.6417 29.8427 39.7311C28.7446 40.0558 27.6439 40.3804 26.5387 40.7052C26.5376 40.7045 26.5365 40.7039 26.5352 40.7032C26.3565 40.7591 26.1665 40.815 25.9766 40.8709L25.4961 42.357L25.2949 42.9939C25.0603 43.7202 25.5966 44.4577 26.3565 44.4577H27.8315C27.021 44.2707 26.8582 43.5963 26.8544 43.0991C26.8522 42.7948 27.1176 42.5581 27.4206 42.5865C28.1232 42.6524 29.4267 42.7593 30.4797 42.7593C32.2227 42.7593 33.843 42.5805 35.3403 42.2229C35.0833 41.7312 34.7257 41.2284 34.2452 40.7703Z" fill="black"/>
<path d="M17.1553 38.5972C9.95789 47.7747 3.46487 53.9669 4.47427 55.352C6.97265 58.7805 22.1591 47.9679 28.1289 37.8827C25.1202 38.1753 20.164 38.3047 17.1553 38.5972Z" fill="#F72121"/>
<path opacity="0.09" d="M26.7389 37.9897C26.4625 38.3802 26.1551 38.7686 25.8569 39.1577C25.4122 39.3489 24.9745 39.5162 24.5549 39.636C23.6029 39.9048 22.7293 39.9944 21.9565 39.8937C20.8589 39.7481 20.1757 39.132 19.8509 38.3929C18.8654 38.4489 17.947 38.5161 17.1517 38.5945C15.4717 40.7449 13.8253 42.7273 12.3133 44.5305C14.3965 44.4969 17.1517 42.2569 17.6557 41.6633C17.4877 42.6377 17.3757 43.8473 18.2157 44.4185C18.3429 44.5203 18.8887 44.6613 19.5093 44.7242C19.9912 44.773 20.1807 45.3694 19.8238 45.6968C13.8084 51.2148 7.06633 55.0804 4.86527 53.6921C4.40607 54.4761 4.24918 55.0361 4.47327 55.3498C6.47816 58.105 16.7149 51.6426 23.7373 43.7578C25.4173 41.8762 26.9181 39.905 28.0717 37.9674C28.0941 37.9338 28.1053 37.9114 28.1277 37.8778C27.702 37.9225 27.2317 37.9561 26.7389 37.9897Z" fill="black"/>
<path d="M17.1944 37.1327C7.92986 45.4665 2.88181 46.7872 4.23211 48.2525C6.43938 50.6476 19.8259 45.5146 26.598 37.4863C24.4538 37.4056 22.3096 37.3251 20.1655 37.2444C19.1752 37.2072 18.1848 37.17 17.1944 37.1327Z" fill="#20ABD1"/>
<path opacity="0.09" d="M26.5931 37.4857C19.8283 45.5161 6.44433 50.6457 4.22673 48.2489C3.81233 47.8009 4.00273 47.3641 4.73064 46.7594C7.74344 48.081 18.3162 43.9594 24.9579 37.4186C25.5068 37.4409 26.0444 37.4633 26.5931 37.4857Z" fill="black"/>
<path d="M50.1893 15.1491C49.1573 16.4239 46.8507 17.7593 44.6559 17.9377C41.5047 16.8574 38.7974 14.3007 39.2844 12.2082C39.7221 10.3272 41.794 9.44928 42.3467 9.24304C44.1992 8.55214 46.7795 8.77081 48.3257 10.5798C49.6952 12.1823 50.2368 14.7285 50.1893 15.1491Z" fill="#F7BC23"/>
<path opacity="0.09" d="M50.1908 15.152C49.8324 15.6 49.3172 16.0592 48.69 16.4625C47.6148 15.152 45.8676 13.3601 42.4516 12.1392C42.1268 12.0272 43.1012 10.2128 44.4228 8.88C45.8228 8.88 47.29 9.3952 48.3204 10.5824C49.698 12.1841 50.2356 14.7264 50.1908 15.152Z" fill="black"/>
<path d="M51.4948 17.1092C50.3716 17.2429 49.5576 13.2559 43.4991 11.0922C42.9943 10.9119 45.679 6.5528 47.9 6.39941C55.2279 9.64531 52.8972 16.9423 51.4948 17.1092Z" fill="#FFD731"/>
<path d="M35.2607 1.18747C41.253 -2.03332 46.1948 2.03211 47.4157 4.68773C47.7904 5.50279 47.9 6.39941 47.9 6.39941C46.2144 7.64514 42.1771 12.5588 44.656 17.9379C45.4488 19.9946 47.5937 28.3411 43.4802 35.1083C36.6603 44.9761 23.4299 40.1387 20.275 39.9812C28.3591 29.2584 23.8828 29.416 27.5819 18.2302C28.9529 14.0839 29.2506 4.41779 35.2607 1.18747Z" fill="#F72121"/>
<path d="M44.6576 17.9365C42.7496 13.8027 44.6966 9.93656 46.465 7.81109C46.1495 3.09248 40.3225 1.68338 38.0069 4.72724C35.6546 7.81949 37.3383 15.3591 44.6576 17.9365Z" fill="#F4F4F4"/>
<path d="M41.9794 8.25216C42.7111 8.25216 43.3042 7.65905 43.3042 6.92741C43.3042 6.19577 42.7111 5.60266 41.9794 5.60266C41.2478 5.60266 40.6547 6.19577 40.6547 6.92741C40.6547 7.65905 41.2478 8.25216 41.9794 8.25216Z" fill="#1D1E1E"/>
<path opacity="0.09" d="M47.8975 6.3976C47.8975 6.3976 47.7855 5.5016 47.4159 4.684C46.4191 2.5224 42.947 -0.591201 38.4447 0.103199C41.6927 0.595999 44.1007 2.9368 44.8959 4.684C45.2871 5.55629 45.0882 6.56376 44.431 7.25799C42.5753 9.21834 40.0501 13.4137 42.1406 17.9336C42.7127 19.4396 44.0099 24.3002 43.058 29.4459C42.4174 32.9089 40.0148 35.8763 36.6934 37.0472C36.5486 37.0983 36.4032 37.1469 36.2574 37.1931C35.2469 37.5139 34.3961 36.3863 34.9807 35.5019C36.7075 32.8899 38.0718 29.8036 38.7227 26.3244C38.9665 25.0207 38.2295 23.7252 36.9982 23.2325L27.9837 19.6249C27.7149 19.5913 27.4237 19.6025 27.1325 19.6585C24.452 28.7854 27.529 29.6657 21.6393 38.1012C21.2249 38.6932 20.7817 39.3099 20.2754 39.9826C23.4338 40.1394 36.661 44.9778 43.4818 35.1106C45.7018 31.4628 46.0985 27.3383 45.8691 24.0076C45.8694 24.0028 45.8701 23.9818 45.8701 23.9706C45.6685 21.137 45.0189 18.8745 44.6605 17.9338C42.1742 12.5576 46.2175 7.6408 47.8975 6.3976Z" fill="black"/>
<path d="M27.9863 16.7366C22.0217 16.0118 10.6567 37.7877 12.1369 40.7195C13.7192 43.8537 18.7365 39.8408 19.4321 39.033C19.2156 40.257 19.0972 41.8818 20.8984 42.1214C26.1051 42.8137 37.8263 34.4759 39.034 21.1551" fill="#F72121"/>
<path d="M12.1409 40.7174C13.719 43.8534 18.7346 39.8429 19.4281 39.0288C19.217 40.255 19.0964 41.8833 20.8955 42.1247C25.7806 42.7779 36.3848 35.4807 38.6865 23.59C34.4649 29.8217 28.3483 33.3136 25.0309 32.3407C23.5569 31.9084 23.0969 30.9676 23.308 29.7515C22.1911 31.6739 16.1338 33.0852 16.0208 29.5403C13.2969 34.5661 11.4877 39.4409 12.1409 40.7174Z" fill="#63E763"/>
<path d="M12.141 40.7173C13.7191 43.8533 18.7347 39.8429 19.4281 39.0288C19.2171 40.255 19.0965 41.8833 20.8956 42.1246C25.4187 42.7277 34.857 36.5059 38.0533 26.1329C33.9223 33.6212 27.5093 37.7632 23.73 37.2606C21.9309 37.0193 21.2375 35.5209 21.4485 34.2946C20.1071 35.7556 13.6371 37.9918 14.7745 31.9627C12.7742 36.0535 11.5982 39.6519 12.141 40.7173Z" fill="#30C3E5"/>
<path opacity="0.09" d="M33.2012 35.0217C29.1132 39.8937 23.9164 42.5257 20.9036 42.1225C19.1003 41.8873 19.2124 40.252 19.4364 39.0313C18.742 39.8377 13.7243 43.8585 12.134 40.7225C10.8907 38.2585 18.6972 22.5337 24.7564 17.9641C19.5036 24.3257 14.318 35.4697 15.3483 37.5081C16.4328 39.6617 19.1388 38.4401 20.9528 37.2022C21.5538 36.7921 22.4194 37.0534 22.6257 37.7511C22.7979 38.3335 23.2184 38.7915 24.1068 38.9081C26.3692 39.2105 29.8747 37.7994 33.2012 35.0217Z" fill="black"/>
</g>
<defs>
<clipPath id="clip0_2004_367">
<rect width="56" height="56" fill="white" transform="translate(0.5)"/>
</clipPath>
</defs>
</svg>
