<svg width="20" height="20" viewBox="0 0 20 20" fill="none" xmlns="http://www.w3.org/2000/svg">
<g clip-path="url(#clip0_2081_39)">
<path d="M3.33334 3.33337H8.33334V8.33337H3.33334V3.33337Z" stroke="#5A5A5A" stroke-width="1.5" stroke-linecap="round" stroke-linejoin="round"/>
<path d="M11.6667 3.33337H16.6667V8.33337H11.6667V3.33337Z" stroke="#5A5A5A" stroke-width="1.5" stroke-linecap="round" stroke-linejoin="round"/>
<path d="M3.33334 11.6666H8.33334V16.6666H3.33334V11.6666Z" stroke="#5A5A5A" stroke-width="1.5" stroke-linecap="round" stroke-linejoin="round"/>
<path d="M11.6667 14.1666C11.6667 14.8297 11.9301 15.4656 12.3989 15.9344C12.8677 16.4032 13.5036 16.6666 14.1667 16.6666C14.8297 16.6666 15.4656 16.4032 15.9344 15.9344C16.4033 15.4656 16.6667 14.8297 16.6667 14.1666C16.6667 13.5036 16.4033 12.8677 15.9344 12.3989C15.4656 11.93 14.8297 11.6666 14.1667 11.6666C13.5036 11.6666 12.8677 11.93 12.3989 12.3989C11.9301 12.8677 11.6667 13.5036 11.6667 14.1666Z" stroke="#5A5A5A" stroke-width="1.5" stroke-linecap="round" stroke-linejoin="round"/>
</g>
<defs>
<clipPath id="clip0_2081_39">
<rect width="20" height="20" fill="white"/>
</clipPath>
</defs>
</svg>
