<svg width="57" height="56" viewBox="0 0 57 56" fill="none" xmlns="http://www.w3.org/2000/svg">
<g clip-path="url(#clip0_2004_146)">
<path d="M45.1303 51.443C42.9183 51.4299 40.5733 50.6284 38.5555 49.0902C37.4495 48.2484 37.2378 46.6682 38.0795 45.5639C38.923 44.4579 40.5006 44.2444 41.6058 45.0879C43.3479 46.4162 45.4531 46.8073 46.7263 46.0364C48.7449 44.8167 49.2156 42.4025 47.8708 40.1652C47.5505 39.6314 47.0176 38.9095 46.4524 38.1457C44.3489 35.301 41.4693 31.4055 42.1763 27.4925C42.528 25.543 43.6839 23.9182 45.6115 22.6652C47.7588 21.2695 50.2385 21.1488 52.4181 22.3405C54.876 23.6828 56.5166 26.4863 56.5 29.3169C56.4921 30.7064 55.359 31.8264 53.9695 31.8185C52.58 31.8107 51.46 30.6775 51.4679 29.288C51.4731 28.3028 50.8563 27.1942 50.0058 26.7558C48.8971 26.1844 47.3003 26.9203 47.1296 28.3868C46.9214 30.177 49.0301 33.1652 50.5001 35.1532C51.1389 36.0168 51.7409 36.8323 52.1871 37.5725C54.9618 42.1934 53.7333 47.684 49.3294 50.344C48.0904 51.0913 46.6423 51.4518 45.1303 51.443Z" fill="#FF9D2D"/>
<path opacity="0.09" d="M49.3268 50.3484C48.0948 51.0878 46.6388 51.4571 45.1268 51.4457C42.92 51.4343 40.568 50.6284 38.552 49.0937C37.9133 48.6011 37.5886 47.8731 37.5668 47.1451L37.5895 47.1678C39.6055 48.7026 41.9461 49.4971 44.1643 49.5198C45.6763 49.5198 47.1209 49.1611 48.3643 48.4112C52.2396 46.0706 53.651 41.5459 52.0375 37.3459C52.0935 37.4247 52.1381 37.5026 52.1828 37.5699C54.9609 42.1952 53.7289 47.6832 49.3268 50.3484Z" fill="black"/>
<path d="M43.3015 47.0216C43.3129 47.5029 43.3129 47.985 43.3129 48.4776C43.3129 51.7484 40.9277 54.8502 36.5369 54.8502H11.1129C8.91753 54.8502 7.51753 54.8502 7.51753 54.8502C6.27415 54.8502 5.41228 53.6515 5.81478 52.5315C6.3074 51.2102 7.83078 50.8287 8.42403 49.1829C10.8434 42.4296 9.98065 31.2856 8.79328 26.4241C8.6139 26.0094 7.95328 25.6069 7.74065 25.2149C3.6859 17.8902 19.8927 21.4856 24.6859 21.4856C28.7407 21.4856 32.4926 23.7484 35.5385 27.153C38.5958 30.5576 40.9592 35.0936 42.2358 39.641C42.7844 41.4216 43.0644 43.001 43.1878 44.5576C43.2665 45.3302 43.3111 46.0924 43.3111 46.8309C43.3129 46.8991 43.3015 46.9551 43.3015 47.0216Z" fill="#FF9D2D"/>
<path d="M32.2958 46.9911C31.4619 48.1023 28.0389 47.7996 25.4471 48.6536C22.6926 49.561 21.5026 51.437 21.2856 53.6236C21.2209 54.2781 21.7643 54.8468 22.4468 54.8468H36.5395C40.9311 54.8468 43.312 51.7493 43.312 48.4768C43.312 45.5115 43.2455 42.9005 42.2428 39.642" fill="#FF9D2D"/>
<path d="M42.8999 42.4918C41.7677 42.7814 40.5094 42.945 39.1383 42.8689C36.9998 42.7429 34.5463 42.0131 34.5839 41.4348C34.5962 40.9693 36.2324 40.8564 38.132 40.3401C39.2389 40.0505 40.5602 39.585 42.0074 38.843C42.3846 40.0628 42.6864 41.2834 42.8999 42.4918Z" fill="#EA6307"/>
<path d="M41.0125 36.0623C39.868 36.6538 38.5091 37.1193 36.9613 37.3083C34.835 37.5725 32.3063 37.296 32.231 36.7299C32.168 36.2644 33.7535 35.8488 35.5271 35.0061C36.6471 34.4776 37.9553 33.7103 39.3649 32.6034C39.9809 33.7225 40.5348 34.8793 41.0125 36.0623Z" fill="#EA6307"/>
<path d="M37.7041 29.9101C36.9367 30.5891 36.0311 31.2183 34.961 31.7345C33.0237 32.6655 30.5326 33.2063 30.2806 32.6909C30.0671 32.2753 31.4382 31.3828 32.847 30.0108C33.6397 29.2434 34.52 28.2616 35.388 26.9789C36.2192 27.8714 36.9866 28.8654 37.7041 29.9101Z" fill="#EA6307"/>
<path opacity="0.09" d="M43.2954 47.0199C43.3068 47.4977 43.3068 47.9868 43.3068 48.4759C43.3068 51.7511 40.9294 54.8451 36.5395 54.8451H32.5364C36.9263 54.8451 39.315 51.7511 39.315 48.4759C39.315 47.9868 39.3036 47.4977 39.3036 47.0199C39.3036 46.9631 39.315 46.8948 39.315 46.8266C39.315 46.0872 39.2695 45.3364 39.1899 44.5629C39.0648 43.0046 38.8031 41.4121 38.2571 39.6271L38.2458 39.6384C35.675 30.5516 28.794 21.4866 20.6845 21.4866C18.7166 21.4866 14.85 20.8837 11.2441 20.6676C15.5203 20.3263 21.9576 21.4866 24.6876 21.4866C32.7971 21.4866 39.6781 30.5516 42.2366 39.6384C42.7826 41.4243 43.067 43.0054 43.1921 44.5629C43.2718 45.3364 43.3059 46.0872 43.3059 46.8266C43.3068 46.8957 43.3068 46.9631 43.2954 47.0199Z" fill="black"/>
<path d="M23.0575 37.4299C23.0575 45.2227 21.8903 50.7684 21.5394 52.2367C21.1938 53.6822 20.1648 54.8486 18.679 54.8486L13.2532 54.8503C12.0115 54.8503 11.1497 53.6551 11.5522 52.5289C12.0465 51.2068 13.5174 50.8052 14.1614 49.1847C15.0207 46.9832 15.4293 43.9373 15.5308 40.7392C15.5526 40.0532 15.5605 39.3611 15.5553 38.6681" fill="#FF9D2D"/>
<path d="M16.2308 38.6672C16.2308 39.3619 16.2194 40.0672 16.1975 40.7619C16.0855 44.3573 15.6043 47.3472 14.7862 49.4305C14.3942 50.4272 13.7554 51.0099 13.1849 51.5253C12.7483 51.94 12.3677 52.2865 12.1769 52.7687C11.9757 53.2954 12.0535 53.8887 12.3677 54.3594C12.5357 54.5948 12.7483 54.7628 12.9609 54.852H11.1129C10.6649 54.068 10.5975 53.1274 10.9222 52.2874C11.2249 51.5148 11.7622 51.0222 12.2775 50.54C12.7815 50.0807 13.2523 49.644 13.5323 48.9388C14.2935 47.0015 14.7529 44.156 14.8649 40.7182C14.8763 40.0462 14.8877 39.3628 14.8877 38.6794C14.8763 38.2988 15.179 37.996 15.5483 37.996H15.5597C15.9289 37.9952 16.2194 38.297 16.2308 38.6672ZM32.6948 46.4512C32.4034 46.2385 31.9782 46.2945 31.7542 46.5859C31.4409 47.0007 30.0514 47.1792 28.8194 47.3367C27.6767 47.4714 26.3887 47.6394 25.2354 48.02C24.272 48.3333 23.4662 48.7813 22.7942 49.3308C23.2422 46.6542 23.7234 42.5434 23.7234 37.436C23.7234 37.0554 23.432 36.764 23.0514 36.764C22.6822 36.764 22.3794 37.0554 22.3794 37.436C22.3794 45.4108 21.136 51.0327 20.8902 52.0853C20.5988 53.284 19.8822 54.5493 19.0535 54.852H21.9883C21.9437 54.628 21.9095 54.2028 21.955 53.6874C22.1677 51.5148 23.411 50.036 25.6624 49.2967C26.6818 48.9493 27.8578 48.804 28.9892 48.6693C30.7024 48.4567 32.1812 48.2659 32.8304 47.3927C33.0535 47.1004 32.9975 46.6752 32.6948 46.4512Z" fill="#EA6307"/>
<path d="M34.1403 1.49279C32.6808 0.137412 26.1961 3.13954 23.6796 4.42141C21.7914 3.62779 19.7185 3.18679 17.5424 3.18679C15.3663 3.18679 13.2925 3.62691 11.4051 4.42141C8.8869 3.14041 2.40227 0.137412 0.942772 1.49279C-0.556978 2.88754 2.15027 9.92604 3.18627 12.3577C2.2404 14.3885 1.69702 16.6443 1.69702 19.0322C1.69702 27.783 8.79065 30.3748 17.5415 30.3748C26.2924 30.3748 33.386 27.7822 33.386 19.0322C33.386 16.6443 32.8426 14.3885 31.8968 12.3577C32.9336 9.92516 35.6409 2.88754 34.1403 1.49279Z" fill="#FF9D2D"/>
<path opacity="0.09" d="M31.8985 12.3577C32.8392 14.3851 33.3878 16.647 33.3878 19.0331C33.3878 27.7805 26.2872 30.3783 17.5398 30.3783C11.3912 30.3783 6.04842 29.0903 3.4278 25.2823C7.42655 28.0823 13.8884 28.4411 20.6644 27.7796C26.3878 27.2082 31.0358 22.5716 31.069 16.8263C31.0918 14.7211 30.6884 12.7383 29.9604 10.9017C29.7364 10.3531 29.725 9.74846 29.9377 9.18846C30.7777 7.10508 32.077 3.53246 32.2564 1.20321C33.1078 1.09121 33.7798 1.15858 34.1377 1.49458C35.6392 2.88321 32.9284 9.92783 31.8985 12.3577Z" fill="black"/>
<path d="M19.022 3.26206C18.8426 5.29731 18.4471 7.59593 17.5371 7.59593C16.6271 7.59593 16.2325 5.29731 16.0522 3.26206C16.5431 3.21393 17.034 3.19031 17.5371 3.19031C18.0402 3.19031 18.5311 3.21393 19.022 3.26206Z" fill="#EA6307"/>
<path d="M13.9821 7.46374C13.2514 7.73936 12.3056 6.00336 11.5994 4.35136C12.3896 4.02849 13.2156 3.76424 14.0661 3.57349C14.4484 5.29724 14.6882 7.18899 13.9821 7.46374Z" fill="#EA6307"/>
<path d="M23.4872 4.35146C22.781 6.00346 21.8352 7.73946 21.1045 7.46384C20.3984 7.18821 20.6259 5.32096 21.0092 3.58496C21.8597 3.76434 22.697 4.02771 23.4872 4.35146Z" fill="#EA6307"/>
<path d="M5.80079 8.39134C4.74028 9.56121 3.85391 10.8956 3.18716 12.3393C2.39966 10.5237 0.715285 6.17146 0.529785 3.48083C2.39966 3.84133 4.83828 6.00696 5.80079 8.39134Z" fill="#F9D4D4"/>
<path opacity="0.09" d="M5.80341 8.38871C5.46828 8.75709 5.14366 9.15696 4.85141 9.55771C4.03941 7.70709 2.37253 6.01921 0.802785 5.25009C0.66191 4.61134 0.564785 4.01634 0.53241 3.47559C2.39441 3.84396 4.84003 6.00784 5.80341 8.38871Z" fill="black"/>
<path d="M34.5629 3.48083C34.366 6.17146 32.6816 10.5237 31.8941 12.3393C31.2274 10.8956 30.341 9.56121 29.2805 8.39134C30.243 6.00696 32.693 3.84133 34.5629 3.48083Z" fill="#F9D4D4"/>
<path opacity="0.09" d="M29.2814 8.38871C29.6165 8.75709 29.9411 9.15696 30.2334 9.55771C31.0454 7.70709 32.7114 6.01921 34.2811 5.25009C34.422 4.61134 34.5191 4.01634 34.5515 3.47559C32.6904 3.84396 30.2439 6.00784 29.2814 8.38871Z" fill="black"/>
<path d="M9.23867 20.4725C9.08204 20.4725 8.92542 20.4191 8.79942 20.3097C8.78542 20.2975 8.02504 19.6614 6.93392 19.5441C5.80429 19.426 5.04217 19.7112 5.03517 19.7139C4.69042 19.8486 4.30017 19.6815 4.16454 19.3367C4.02804 18.9937 4.19167 18.6052 4.53467 18.467C4.57754 18.4486 5.59254 18.0479 7.07654 18.208C8.60867 18.3725 9.63854 19.258 9.68054 19.2947C9.96054 19.5397 9.98854 19.9641 9.74529 20.2432C9.61142 20.3946 9.42504 20.4725 9.23867 20.4725ZM6.14992 23.5962C6.15342 23.5927 6.58304 23.2165 7.21479 23.08C8.06967 22.8927 8.65154 23.0782 8.67954 23.087C9.02779 23.2112 9.40929 23.031 9.53617 22.6845C9.66392 22.3371 9.48454 21.9504 9.13542 21.8226C9.04267 21.7876 8.18604 21.4954 6.93042 21.7666C5.94867 21.9792 5.31429 22.5384 5.24517 22.6022C4.97304 22.8516 4.95467 23.2716 5.20142 23.5464C5.33354 23.6925 5.51642 23.7677 5.70017 23.7677C5.85942 23.7669 6.02042 23.7109 6.14992 23.5962Z" fill="#1D1E1E"/>
<path d="M25.8462 20.4725C25.6589 20.4725 25.4734 20.3946 25.3396 20.2432C25.0954 19.9641 25.1243 19.5397 25.4043 19.2947C25.4472 19.258 26.4762 18.3716 28.0074 18.208C29.4906 18.0479 30.5056 18.4486 30.5493 18.467C30.8923 18.6061 31.0594 18.9972 30.9194 19.342C30.7803 19.6867 30.3909 19.853 30.0444 19.7121C30.0418 19.7121 29.2876 19.4269 28.1501 19.545C27.0546 19.6622 26.2959 20.3019 26.2889 20.308C26.1612 20.4182 26.0037 20.4725 25.8462 20.4725ZM29.8799 23.5516C30.1302 23.2769 30.1118 22.8525 29.8379 22.6022C29.7688 22.5384 29.1344 21.9792 28.1527 21.7657C26.8971 21.4962 26.0404 21.7876 25.9477 21.8226C25.6021 21.9495 25.4262 22.3292 25.5487 22.6757C25.6712 23.024 26.0527 23.2104 26.4027 23.087C26.4079 23.0861 26.9968 22.8936 27.8683 23.0791C28.5001 23.2165 28.9306 23.5927 28.9306 23.5927C29.0601 23.7109 29.2228 23.7686 29.3847 23.7686C29.5658 23.7695 29.7469 23.696 29.8799 23.5516Z" fill="#1D1E1E"/>
<path d="M21.1588 23.7791C20.8875 23.5245 20.4623 23.5393 20.2094 23.8123C20.0747 23.955 19.5987 24.4152 18.994 24.3067C18.665 24.249 18.4016 24.046 18.2231 23.864L18.2013 20.1592C18.1987 19.7882 17.8968 19.4898 17.5258 19.4916C17.1548 19.4933 16.8564 19.7961 16.8582 20.1671L16.88 23.8412C16.7006 24.0285 16.4285 24.2463 16.0882 24.3058C15.4958 24.4187 15.0058 23.9532 14.8719 23.8088C14.6181 23.5411 14.1929 23.5262 13.9217 23.7791C13.6513 24.0337 13.6382 24.4598 13.8919 24.7293C14.115 24.9656 14.8605 25.6647 15.9079 25.6647C16.04 25.6647 16.1783 25.6533 16.32 25.6288C16.824 25.5405 17.223 25.3068 17.5424 25.0443C17.9134 25.3445 18.3282 25.5527 18.7622 25.6288C18.9057 25.6542 19.043 25.6647 19.1778 25.6647C20.2269 25.6647 20.9707 24.9647 21.1912 24.7276C21.4458 24.4572 21.43 24.032 21.1588 23.7791Z" fill="#1D1E1E"/>
<path d="M11.469 15.0483C12.3128 15.0483 12.9968 14.3643 12.9968 13.5205C12.9968 12.6768 12.3128 11.9928 11.469 11.9928C10.6253 11.9928 9.94128 12.6768 9.94128 13.5205C9.94128 14.3643 10.6253 15.0483 11.469 15.0483Z" fill="#1D1E1E"/>
<path d="M24.0944 15.0483C24.9382 15.0483 25.6222 14.3643 25.6222 13.5205C25.6222 12.6768 24.9382 11.9928 24.0944 11.9928C23.2506 11.9928 22.5667 12.6768 22.5667 13.5205C22.5667 14.3643 23.2506 15.0483 24.0944 15.0483Z" fill="#1D1E1E"/>
<path d="M17.5415 21.1602C16.6464 21.1602 15.1642 19.3105 15.564 18.4897C15.9158 17.7705 16.8862 17.5841 17.5415 17.5893C18.1969 17.5841 19.1673 17.7705 19.519 18.4897C19.9189 19.3113 18.4367 21.1602 17.5415 21.1602Z" fill="#F9D4D4"/>
<path opacity="0.09" d="M17.5459 21.1593C17.0909 21.1593 16.4854 20.6833 16.0522 20.1093C16.3226 20.3149 16.593 20.4444 16.8319 20.4444C17.6972 20.4444 19.1156 18.7023 18.8234 17.8474C19.1156 17.9883 19.3755 18.1825 19.5164 18.4862C19.9162 19.3087 18.4331 21.1593 17.5459 21.1593Z" fill="black"/>
</g>
<defs>
<clipPath id="clip0_2004_146">
<rect width="56" height="56" fill="white" transform="translate(0.5)"/>
</clipPath>
</defs>
</svg>
