<svg width="57" height="56" viewBox="0 0 57 56" fill="none" xmlns="http://www.w3.org/2000/svg">
<g clip-path="url(#clip0_2004_244)">
<path d="M12.9494 0V1.95971C12.9465 3.85636 13.2077 5.74454 13.7264 7.56918L14.8634 11.5681L23.5442 2.90427L22.0721 2.16585C19.2408 0.745011 16.1172 0.00376506 12.9494 0Z" fill="#F7A116"/>
<path d="M38.5155 2.18793L37.0382 2.92258L45.7011 11.6095L46.8528 7.61432C47.3761 5.79109 47.6434 3.90385 47.6463 2.00673V0.0470196C44.478 0.0423132 41.3516 0.775559 38.5155 2.18793Z" fill="#F7A116"/>
<path d="M15.3119 40.5351C13.5659 40.3195 12.0133 39.3204 11.0937 37.8205C10.1745 36.3206 9.98861 34.4837 10.5887 32.8299C11.1586 31.3926 11.0452 29.7741 10.2795 28.4309L10.0973 28.1273C5.83857 28.6723 2.61945 32.2505 2.52626 36.5427C2.43261 40.8349 5.49313 44.55 9.72365 45.28C13.9546 46.0099 18.083 43.5354 19.4333 39.4601C18.2477 40.3327 16.7723 40.7172 15.3119 40.5351Z" fill="#EE9200"/>
<path d="M48.5414 51.1314L50.2234 43.1951C50.7609 40.6589 50.126 38.0158 48.4953 36.0006C46.8645 33.9853 44.4121 32.8125 41.8198 32.8087L18.6873 32.7767C16.0946 32.7734 13.6388 33.9392 12.0024 35.9502C10.3665 37.9612 9.72411 40.6024 10.2545 43.1401L11.9149 51.0843H10.951C8.28962 51.0806 6.12895 53.2351 6.12518 55.897L17.6914 55.9121L42.7517 55.9479L54.318 55.9634C54.3217 53.302 52.1672 51.1413 49.5053 51.1375L48.5414 51.1314Z" fill="#F7A116"/>
<path d="M54.5801 56.0001C54.5801 53.3382 52.4227 51.1808 49.7608 51.1808H48.797L50.4682 43.2421C51.1539 39.9943 49.9058 36.6425 47.2627 34.6343C42.6016 46.8877 30.7586 52.9871 20.855 56.0001H54.5801Z" fill="#F58F00"/>
<path d="M47.8331 21.3013H51.6885C51.6885 23.9627 49.5312 26.1205 46.8693 26.1205H43.0138C43.0138 23.4586 45.1717 21.3013 47.8331 21.3013Z" fill="#348FD9"/>
<path d="M43.0138 26.1206H46.8693C49.5312 26.1206 51.6885 28.278 51.6885 30.9399H47.8331C45.1717 30.9399 43.0138 28.782 43.0138 26.1206Z" fill="#3086CD"/>
<path d="M43.0138 20.3374H17.9536V24.2041L19.8813 56.0001H27.5922V41.5422H33.3753V56.0001H41.0861L43.0138 24.2041V20.3374Z" fill="#FFB531"/>
<path d="M43.0138 21.3013H17.9536V24.2041C18.1809 28.1325 20.2729 31.715 23.5828 33.8427C24.8677 34.6658 26.185 35.4372 27.5343 36.1563C27.5931 36.1869 27.65 36.2217 27.7089 36.2523L30.4268 37.6868L33.3183 36.0674L36.4259 34.3326L36.8114 34.1147C40.4145 32.0595 42.7446 28.332 43.0138 24.1928V21.3013Z" fill="#348FD9"/>
<path d="M43.0138 21.3013H17.9536V24.2041C18.1809 28.1325 20.2729 31.715 23.5828 33.8427C24.8677 34.6658 26.185 35.4372 27.5343 36.1563C27.5931 36.1869 27.65 36.2217 27.7089 36.2523L30.4268 37.6868L33.3183 36.0674L36.4259 34.3326L36.8114 34.1147C40.4145 32.0595 42.7446 28.332 43.0138 24.1928V21.3013Z" fill="#3086CD"/>
<path d="M34.9175 29.0121H26.0499C25.174 29.0121 24.3241 28.7142 23.6402 28.1669L16.5078 22.4576C15.5943 21.7263 15.0625 20.6193 15.062 19.4489V12.2957C15.062 11.2731 15.4687 10.2923 16.1915 9.56936L21.6434 4.11756C22.3662 3.39419 23.3475 2.98804 24.3702 2.98804H36.5977C37.6204 2.98804 38.6012 3.39419 39.3241 4.11756L44.7759 9.56936C45.4992 10.2923 45.9054 11.2731 45.9054 12.2957V19.4489C45.9054 20.6193 45.3736 21.7263 44.4596 22.4576L37.3272 28.1659C36.6434 28.7133 35.7934 29.0121 34.9175 29.0121Z" fill="#FFB531"/>
<path d="M38.6765 13.5905C35.6578 13.6446 32.9889 15.5648 31.978 18.4097H28.9899C27.979 15.5648 25.3101 13.6446 22.2909 13.5905C19.3236 13.6403 16.6871 15.4975 15.6404 18.2747C15.0164 19.8517 15.4959 21.6514 16.8222 22.7085L23.6402 28.1669C24.3241 28.7142 25.174 29.0121 26.0499 29.0121H34.9175C35.7934 29.0121 36.6434 28.7142 37.3272 28.1669L44.1495 22.7094C45.4757 21.6524 45.9553 19.8527 45.3312 18.2756C44.2841 15.4965 41.6457 13.6389 38.6765 13.5905Z" fill="#FFD896"/>
<path d="M29.5199 14.5543H31.4476C32.5121 14.5543 33.3753 15.4175 33.3753 16.482C33.3753 17.5466 32.5121 18.4097 31.4476 18.4097H29.5199C28.4553 18.4097 27.5921 17.5466 27.5921 16.482C27.5921 15.4175 28.4553 14.5543 29.5199 14.5543Z" fill="#2E3E51"/>
<path d="M33.3753 22.2651C33.3753 23.862 32.0806 25.1567 30.4837 25.1567C28.8869 25.1567 27.5921 23.862 27.5921 22.2651L30.4837 21.3013L33.3753 22.2651Z" fill="#E94F4F"/>
<path d="M25.6644 11.6627C25.6644 12.7273 24.8013 13.5904 23.7367 13.5904C22.6722 13.5904 21.809 12.7273 21.809 11.6627C21.809 10.5981 22.6722 9.73499 23.7367 9.73499C24.8013 9.73499 25.6644 10.5981 25.6644 11.6627Z" fill="#2E3E51"/>
<path d="M39.1584 11.6627C39.1584 12.7273 38.2953 13.5904 37.2307 13.5904C36.1661 13.5904 35.303 12.7273 35.303 11.6627C35.303 10.5981 36.1661 9.73499 37.2307 9.73499C38.2953 9.73499 39.1584 10.5981 39.1584 11.6627Z" fill="#2E3E51"/>
<path d="M22.7729 5.87964H24.7006V7.80735H22.7729V5.87964Z" fill="#FFD896"/>
<path d="M36.2668 5.87964H38.1946V7.80735H36.2668V5.87964Z" fill="#FFD896"/>
<path d="M36.4287 18.8385L35.2183 20.6566C35.0004 20.9804 34.6097 21.1423 34.2267 21.067L31.4476 20.5107V18.4098H29.5199V20.5107L26.7412 21.067C26.3581 21.1437 25.9671 20.9813 25.7501 20.6566L24.5387 18.8385L22.9348 19.9083L24.1466 21.7254C24.7952 22.702 25.9703 23.1886 27.1201 22.957L30.4837 22.2826L33.8478 22.957C34.9971 23.1914 36.1741 22.7038 36.8213 21.7254L38.0327 19.9083L36.4287 18.8385Z" fill="#2E3E51"/>
</g>
<defs>
<clipPath id="clip0_2004_244">
<rect width="56" height="56" fill="white" transform="translate(0.5)"/>
</clipPath>
</defs>
</svg>
