<svg width="20" height="20" viewBox="0 0 20 20" fill="none" xmlns="http://www.w3.org/2000/svg">
<g opacity="0.7" clip-path="url(#clip0_2081_51)">
<path d="M10 11.6666V17.5" stroke="#131313" stroke-width="1.5" stroke-linecap="round" stroke-linejoin="round"/>
<path d="M7.5 15H12.5" stroke="#131313" stroke-width="1.5" stroke-linecap="round" stroke-linejoin="round"/>
<path d="M10 5C10.8841 5 11.7319 5.35119 12.357 5.97631C12.9821 6.60143 13.3333 7.44928 13.3333 8.33333C13.3333 9.21739 12.9821 10.0652 12.357 10.6904C11.7319 11.3155 10.8841 11.6667 10 11.6667C9.11594 11.6667 8.2681 11.3155 7.64297 10.6904C7.01785 10.0652 6.66666 9.21739 6.66666 8.33333C6.66666 7.44928 7.01785 6.60143 7.64297 5.97631C8.2681 5.35119 9.11594 5 10 5Z" stroke="#131313" stroke-width="1.5" stroke-linecap="round" stroke-linejoin="round"/>
<path d="M12.5 2.5C12.5 3.16304 12.2366 3.79893 11.7678 4.26777C11.2989 4.73661 10.663 5 10 5C9.33696 5 8.70107 4.73661 8.23223 4.26777C7.76339 3.79893 7.5 3.16304 7.5 2.5" stroke="#131313" stroke-width="1.5" stroke-linecap="round" stroke-linejoin="round"/>
</g>
<defs>
<clipPath id="clip0_2081_51">
<rect width="20" height="20" fill="white"/>
</clipPath>
</defs>
</svg>
