<svg width="33" height="32" viewBox="0 0 33 32" fill="none" xmlns="http://www.w3.org/2000/svg">
<g clip-path="url(#clip0_12_888)">
<path d="M11.3579 16C11.3579 13.0546 13.745 10.6662 16.6904 10.6662C19.6358 10.6662 22.0242 13.0546 22.0242 16C22.0242 18.9454 19.6358 21.3338 16.6904 21.3338C13.745 21.3338 11.3579 18.9454 11.3579 16ZM8.47462 16C8.47462 20.5376 12.1528 24.2158 16.6904 24.2158C21.228 24.2158 24.9062 20.5376 24.9062 16C24.9062 11.4624 21.228 7.78419 16.6904 7.78419C12.1528 7.78419 8.47462 11.4624 8.47462 16ZM23.3115 7.45843C23.3113 7.83817 23.4238 8.20943 23.6346 8.52526C23.8455 8.84108 24.1452 9.08729 24.496 9.23275C24.8468 9.37821 25.2328 9.41639 25.6053 9.34246C25.9778 9.26852 26.32 9.0858 26.5886 8.81739C26.8572 8.54898 27.0402 8.20694 27.1144 7.83453C27.1887 7.46211 27.1508 7.07605 27.0056 6.72516C26.8604 6.37426 26.6145 6.0743 26.2988 5.8632C25.9832 5.65211 25.612 5.53935 25.2323 5.5392H25.2315C24.7225 5.53944 24.2344 5.74169 23.8744 6.10155C23.5144 6.4614 23.3119 6.94942 23.3115 7.45843ZM10.2264 29.0236C8.66649 28.9526 7.81862 28.6927 7.25517 28.4732C6.50816 28.1824 5.97517 27.836 5.41478 27.2764C4.8544 26.7168 4.50752 26.1843 4.21798 25.4373C3.99833 24.8741 3.73849 24.026 3.66758 22.466C3.59001 20.7795 3.57453 20.2729 3.57453 16.0001C3.57453 11.7274 3.59129 11.2221 3.66758 9.53421C3.73862 7.97427 4.00038 7.12781 4.21798 6.56294C4.5088 5.81594 4.85517 5.28294 5.41478 4.72256C5.9744 4.16218 6.50688 3.8153 7.25517 3.52576C7.81837 3.30611 8.66649 3.04627 10.2264 2.97536C11.913 2.89779 12.4196 2.8823 16.6904 2.8823C20.9613 2.8823 21.4684 2.89907 23.1563 2.97536C24.7163 3.0464 25.5627 3.30816 26.1276 3.52576C26.8746 3.8153 27.4076 4.16294 27.968 4.72256C28.5284 5.28218 28.874 5.81594 29.1648 6.56294C29.3844 7.12614 29.6443 7.97427 29.7152 9.53421C29.7928 11.2221 29.8083 11.7274 29.8083 16.0001C29.8083 20.2729 29.7928 20.7781 29.7152 22.466C29.6442 24.026 29.383 24.8739 29.1648 25.4373C28.874 26.1843 28.5276 26.7173 27.968 27.2764C27.4084 27.8355 26.8746 28.1824 26.1276 28.4732C25.5644 28.6929 24.7163 28.9527 23.1563 29.0236C21.4698 29.1012 20.9632 29.1167 16.6904 29.1167C12.4177 29.1167 11.9124 29.1012 10.2264 29.0236ZM10.0939 0.096896C8.39065 0.174464 7.22675 0.444544 6.2103 0.840064C5.15763 1.24851 4.26649 1.79648 3.376 2.68557C2.4855 3.57466 1.93894 4.4672 1.53049 5.51987C1.13497 6.53696 0.864894 7.70022 0.787326 9.40352C0.708478 11.1095 0.69043 11.6549 0.69043 16C0.69043 20.3451 0.708478 20.8905 0.787326 22.5965C0.864894 24.2999 1.13497 25.463 1.53049 26.4801C1.93894 27.5322 2.48563 28.4257 3.376 29.3144C4.26637 30.2031 5.15763 30.7503 6.2103 31.1599C7.22867 31.5555 8.39065 31.8255 10.0939 31.9031C11.8008 31.9807 12.3453 32 16.6904 32C21.0355 32 21.5809 31.982 23.2869 31.9031C24.9903 31.8255 26.1535 31.5555 27.1706 31.1599C28.2226 30.7503 29.1144 30.2035 30.0049 29.3144C30.8954 28.4253 31.4408 27.5322 31.8504 26.4801C32.2459 25.463 32.5172 24.2998 32.5935 22.5965C32.6711 20.8892 32.6891 20.3451 32.6891 16C32.6891 11.6549 32.6711 11.1095 32.5935 9.40352C32.516 7.7001 32.2459 6.53632 31.8504 5.51987C31.4408 4.46784 30.8939 3.57606 30.0049 2.68557C29.1158 1.79507 28.2226 1.24851 27.1718 0.840064C26.1535 0.444544 24.9902 0.173184 23.2882 0.096896C21.5822 0.019328 21.0368 0 16.6917 0C12.3466 0 11.8008 0.018048 10.0939 0.096896Z" fill="url(#paint0_radial_12_888)"/>
<path d="M11.3579 16C11.3579 13.0546 13.745 10.6662 16.6904 10.6662C19.6358 10.6662 22.0242 13.0546 22.0242 16C22.0242 18.9454 19.6358 21.3338 16.6904 21.3338C13.745 21.3338 11.3579 18.9454 11.3579 16ZM8.47462 16C8.47462 20.5376 12.1528 24.2158 16.6904 24.2158C21.228 24.2158 24.9062 20.5376 24.9062 16C24.9062 11.4624 21.228 7.78419 16.6904 7.78419C12.1528 7.78419 8.47462 11.4624 8.47462 16ZM23.3115 7.45843C23.3113 7.83817 23.4238 8.20943 23.6346 8.52526C23.8455 8.84108 24.1452 9.08729 24.496 9.23275C24.8468 9.37821 25.2328 9.41639 25.6053 9.34246C25.9778 9.26852 26.32 9.0858 26.5886 8.81739C26.8572 8.54898 27.0402 8.20694 27.1144 7.83453C27.1887 7.46211 27.1508 7.07605 27.0056 6.72516C26.8604 6.37426 26.6145 6.0743 26.2988 5.8632C25.9832 5.65211 25.612 5.53935 25.2323 5.5392H25.2315C24.7225 5.53944 24.2344 5.74169 23.8744 6.10155C23.5144 6.4614 23.3119 6.94942 23.3115 7.45843ZM10.2264 29.0236C8.66649 28.9526 7.81862 28.6927 7.25517 28.4732C6.50816 28.1824 5.97517 27.836 5.41478 27.2764C4.8544 26.7168 4.50752 26.1843 4.21798 25.4373C3.99833 24.8741 3.73849 24.026 3.66758 22.466C3.59001 20.7795 3.57453 20.2729 3.57453 16.0001C3.57453 11.7274 3.59129 11.2221 3.66758 9.53421C3.73862 7.97427 4.00038 7.12781 4.21798 6.56294C4.5088 5.81594 4.85517 5.28294 5.41478 4.72256C5.9744 4.16218 6.50688 3.8153 7.25517 3.52576C7.81837 3.30611 8.66649 3.04627 10.2264 2.97536C11.913 2.89779 12.4196 2.8823 16.6904 2.8823C20.9613 2.8823 21.4684 2.89907 23.1563 2.97536C24.7163 3.0464 25.5627 3.30816 26.1276 3.52576C26.8746 3.8153 27.4076 4.16294 27.968 4.72256C28.5284 5.28218 28.874 5.81594 29.1648 6.56294C29.3844 7.12614 29.6443 7.97427 29.7152 9.53421C29.7928 11.2221 29.8083 11.7274 29.8083 16.0001C29.8083 20.2729 29.7928 20.7781 29.7152 22.466C29.6442 24.026 29.383 24.8739 29.1648 25.4373C28.874 26.1843 28.5276 26.7173 27.968 27.2764C27.4084 27.8355 26.8746 28.1824 26.1276 28.4732C25.5644 28.6929 24.7163 28.9527 23.1563 29.0236C21.4698 29.1012 20.9632 29.1167 16.6904 29.1167C12.4177 29.1167 11.9124 29.1012 10.2264 29.0236ZM10.0939 0.096896C8.39065 0.174464 7.22675 0.444544 6.2103 0.840064C5.15763 1.24851 4.26649 1.79648 3.376 2.68557C2.4855 3.57466 1.93894 4.4672 1.53049 5.51987C1.13497 6.53696 0.864894 7.70022 0.787326 9.40352C0.708478 11.1095 0.69043 11.6549 0.69043 16C0.69043 20.3451 0.708478 20.8905 0.787326 22.5965C0.864894 24.2999 1.13497 25.463 1.53049 26.4801C1.93894 27.5322 2.48563 28.4257 3.376 29.3144C4.26637 30.2031 5.15763 30.7503 6.2103 31.1599C7.22867 31.5555 8.39065 31.8255 10.0939 31.9031C11.8008 31.9807 12.3453 32 16.6904 32C21.0355 32 21.5809 31.982 23.2869 31.9031C24.9903 31.8255 26.1535 31.5555 27.1706 31.1599C28.2226 30.7503 29.1144 30.2035 30.0049 29.3144C30.8954 28.4253 31.4408 27.5322 31.8504 26.4801C32.2459 25.463 32.5172 24.2998 32.5935 22.5965C32.6711 20.8892 32.6891 20.3451 32.6891 16C32.6891 11.6549 32.6711 11.1095 32.5935 9.40352C32.516 7.7001 32.2459 6.53632 31.8504 5.51987C31.4408 4.46784 30.8939 3.57606 30.0049 2.68557C29.1158 1.79507 28.2226 1.24851 27.1718 0.840064C26.1535 0.444544 24.9902 0.173184 23.2882 0.096896C21.5822 0.019328 21.0368 0 16.6917 0C12.3466 0 11.8008 0.018048 10.0939 0.096896Z" fill="url(#paint1_radial_12_888)"/>
</g>
<defs>
<radialGradient id="paint0_radial_12_888" cx="0" cy="0" r="1" gradientUnits="userSpaceOnUse" gradientTransform="translate(4.94182 32.1512) scale(41.7733 41.7733)">
<stop offset="0.09" stop-color="#FA8F21"/>
<stop offset="0.78" stop-color="#D82D7E"/>
</radialGradient>
<radialGradient id="paint1_radial_12_888" cx="0" cy="0" r="1" gradientUnits="userSpaceOnUse" gradientTransform="translate(20.097 33.5848) scale(32.9231)">
<stop offset="0.64" stop-color="#8C3AAA" stop-opacity="0"/>
<stop offset="1" stop-color="#8C3AAA"/>
</radialGradient>
<clipPath id="clip0_12_888">
<rect width="32" height="32" fill="white" transform="translate(0.689789)"/>
</clipPath>
</defs>
</svg>
