<svg width="20" height="20" viewBox="0 0 20 20" fill="none" xmlns="http://www.w3.org/2000/svg">
<g clip-path="url(#clip0_2081_59)">
<path d="M13.9167 6.66667C13.7508 6.19603 13.4479 5.7858 13.0469 5.48878C12.6459 5.19176 12.1652 5.02153 11.6667 5H8.33334C7.67029 5 7.03441 5.26339 6.56557 5.73223C6.09673 6.20107 5.83334 6.83696 5.83334 7.5C5.83334 8.16304 6.09673 8.79893 6.56557 9.26777C7.03441 9.73661 7.67029 10 8.33334 10H11.6667C12.3297 10 12.9656 10.2634 13.4344 10.7322C13.9033 11.2011 14.1667 11.837 14.1667 12.5C14.1667 13.163 13.9033 13.7989 13.4344 14.2678C12.9656 14.7366 12.3297 15 11.6667 15H8.33334C7.83479 14.9785 7.35409 14.8082 6.95311 14.5112C6.55213 14.2142 6.24921 13.804 6.08334 13.3333" stroke="#5A5A5A" stroke-width="1.5" stroke-linecap="round" stroke-linejoin="round"/>
<path d="M10 2.5V5M10 15V17.5" stroke="#5A5A5A" stroke-width="1.5" stroke-linecap="round" stroke-linejoin="round"/>
</g>
<defs>
<clipPath id="clip0_2081_59">
<rect width="20" height="20" fill="white"/>
</clipPath>
</defs>
</svg>
