<svg width="56" height="56" viewBox="0 0 56 56" fill="none" xmlns="http://www.w3.org/2000/svg">
<path d="M14.7931 9.13843L18.2484 14.9135L21.9545 17.4301L22.4174 16.976L19.6757 8.9678L17.8352 4.96358L16.3329 4.3501L14.3047 4.5473L13.6317 6.53793L13.5835 6.72911L14.7931 9.13843Z" fill="#FF9BA1"/>
<path d="M21.8967 17.038C17.8638 13.5794 15.2969 9.3049 13.8413 6.28473V5.91821L13.6318 6.53793L12.9589 9.2046V10.3133C14.145 12.7744 16.2367 16.2575 19.523 19.076C19.8522 19.3642 20.2766 19.076 20.2766 19.076L22.2039 17.1856C22.1006 17.168 21.9952 17.1242 21.8967 17.038Z" fill="#FF7F87"/>
<path d="M42.2766 5.95572L41.4372 4.51908L39.4033 4.3501L37.5441 6.26558L34.9526 11.7867L33.6954 17.0943L36.1075 19.0759H36.477C39.7633 16.2575 41.855 12.7744 43.0411 10.3133L43.4032 9.30785L42.2766 5.95572Z" fill="#FF9BA1"/>
<path d="M41.7241 6.47789C41.8727 6.23234 42.0264 6.00616 42.1834 5.79638L41.4372 4.5192L39.4033 4.35022L37.5441 6.2657L34.9526 11.7868L33.6954 17.0944L36.1075 19.076H36.477C36.6223 18.9513 36.7645 18.825 36.9052 18.6978C38.1047 14.9963 40.1425 9.09119 41.7241 6.47789Z" fill="#FF7F87"/>
<path d="M44.013 0.341309H42.4441L39.3188 3.721L38.5493 5.07309L39.0256 5.55292C39.1137 5.46662 39.2024 5.38492 39.2916 5.30945C40.132 4.59884 41.434 5.04028 41.678 6.11346C42.4961 9.71103 44.3264 14.1934 48.3892 17.5254C49.5095 18.4442 51.207 17.7277 51.3392 16.2849C51.7829 11.4424 51.5816 2.2219 44.013 0.341309Z" fill="#E39B74"/>
<path d="M39.0258 5.55297C40.2573 3.14005 41.8848 1.11781 44.0132 0.34125C43.1266 0.120969 42.1404 0 41.0409 0C34.6478 0 31.9552 10.38 31.0278 15.3908L31.3988 16.3783L33.3099 17.1952L34.1471 16.976C34.9751 14.3583 36.7706 8.9425 38.1252 6.70425C38.4073 6.23809 38.7121 5.86031 39.0258 5.55297Z" fill="#DD8858"/>
<path d="M16.8955 0.341309H15.2438L10.657 3.64586C10.657 3.64586 9.77887 7.47682 9.43149 8.15287C9.08412 8.82892 9.04649 12.5472 9.00898 12.9228C8.97146 13.2984 9.5214 15.7052 9.5214 15.7052C12.2743 12.6704 13.6452 9.08945 14.322 6.11347C14.566 5.04039 15.868 4.59884 16.7083 5.30945C17.1151 5.65343 17.5135 6.10723 17.8749 6.7042C19.2295 8.94245 21.025 14.3583 21.853 16.9759H22.6551L24.5663 16.012L24.9723 15.3908C24.1445 10.919 21.9106 2.17126 16.8955 0.341309Z" fill="#E39B74"/>
<path d="M16.8955 0.34125C16.2911 0.12075 15.6466 0 14.9591 0C4.47266 0 4.1651 10.8753 4.66079 16.2848C4.79302 17.7276 6.49052 18.444 7.61074 17.5254C8.31271 16.9497 8.94654 16.3391 9.52141 15.7053C9.15216 10.7415 9.61876 2.14933 16.8955 0.34125Z" fill="#DD8858"/>
<path d="M30.8347 15.3314H28.5582L23.8821 19.204L21.4032 24.2208C21.4032 24.2208 19.4394 30.9893 18.8854 32.3619L25.7799 35.4885H30.6426L39.4876 31.3761L41.437 30.0927C40.2056 22.6845 36.0626 16.8927 30.8347 15.3314Z" fill="#EAAE8E"/>
<path d="M22.5255 29.8574C22.0459 29.8574 21.6571 29.4686 21.6571 28.989V26.5285C21.6571 26.0489 22.0459 25.66 22.5255 25.66C23.0052 25.66 23.394 26.0489 23.394 26.5285V28.989C23.394 29.4686 23.0052 29.8574 22.5255 29.8574Z" fill="#544E55"/>
<path d="M33.4745 29.8574C32.9949 29.8574 32.6061 29.4686 32.6061 28.989V26.5285C32.6061 26.0489 32.9948 25.66 33.4745 25.66C33.9542 25.66 34.343 26.0489 34.343 26.5285V28.989C34.3428 29.4686 33.9541 29.8574 33.4745 29.8574Z" fill="#544E55"/>
<path d="M16.2369 31.1608C17.3013 30.3595 18.4 29.523 18.4 29.523H20.3344C21.6795 22.3889 25.7416 16.8524 30.8346 15.3314C29.9196 15.0581 28.9716 14.9133 27.9999 14.9133C21.4765 14.9133 16.0099 21.3877 14.5627 30.0926L15.3187 30.7444L16.2369 31.1608Z" fill="#E39B74"/>
<path d="M43.458 53.3159C41.6199 49.2609 39.3584 45.9361 36.8066 43.596L35.7066 43.1647L34.1733 43.596C34.1733 43.596 30.8681 45.7492 30.7554 45.7492C30.6428 45.7492 25.009 45.6365 25.009 45.6365L22.4175 44.5151L18.1075 50.1L16.8681 53.9276L17.4878 55.4769C17.4878 55.4769 17.8439 55.7112 18.2751 56H22.3305L23.6192 55.1765H32.4454L33.6692 56H41.7329C43.1134 56 44.028 54.573 43.458 53.3159Z" fill="#E39B74"/>
<path d="M17.5932 53.3158C19.139 49.9058 20.985 47.0149 23.0504 44.789L20.2933 43.5959L19.1932 43.5961C16.6414 45.9361 14.3801 49.2609 12.5419 53.3158C11.9719 54.5729 12.8865 55.9999 14.2668 55.9999H19.3181C17.9378 55.9999 17.0232 54.5729 17.5932 53.3158Z" fill="#DD8858"/>
<path d="M36.9112 29.1901C34.935 29.1901 33.1063 29.678 31.6094 30.5052L30.8621 31.1106H25.1437L24.2658 30.5052C23.0258 29.8198 21.5578 29.3686 19.9672 29.2334L18.1074 29.6457L15.4877 32.3781C15.4877 32.3781 14.5389 36.519 14.5626 36.6035C14.5862 36.688 16.6474 40.6035 17.2647 41.1387C17.882 41.6739 22.3609 43.3923 22.3609 43.3923C22.3609 43.3923 25.8186 44.5472 25.7799 44.7444C25.7411 44.9416 27.9998 46.1247 27.9998 46.1247L30.1092 46.3643C31.697 46.0796 33.135 45.4904 34.3147 44.6788C35.3733 43.9505 36.6001 43.515 37.8812 43.4163C42.6684 43.0471 46.078 39.8129 46.078 36.3192C46.0781 32.3818 41.9739 29.1901 36.9112 29.1901Z" fill="#FEE6C1"/>
<path d="M25.8294 44.2409C24.9171 43.4323 23.8288 42.9141 22.6675 42.7264C18.3949 42.0361 15.4689 38.5989 15.7292 35.0061C15.9128 32.4722 17.5874 30.3548 19.9674 29.2334C19.6378 29.2054 19.3033 29.1899 18.9642 29.1899C13.9014 29.1899 9.79712 32.3817 9.79712 36.3191C9.79712 39.8692 13.2645 43.0396 17.985 43.4136C19.2681 43.5153 20.4977 43.9471 21.5579 44.677C23.2566 45.8463 25.4905 46.5563 27.9375 46.5563C28.6844 46.5563 29.4112 46.4893 30.1093 46.3642C28.45 46.0103 26.9783 45.2593 25.8294 44.2409Z" fill="#FCD79B"/>
<path d="M4.04499 37.8625C3.73743 37.5115 3.77264 36.9776 4.12363 36.67C9.87632 31.6287 17.7317 32.9725 18.0631 33.0321C18.5225 33.1148 18.8279 33.5541 18.7452 34.0134C18.6626 34.4724 18.2232 34.7779 17.7648 34.6956C17.6879 34.682 10.366 33.4466 5.2375 37.941C4.88674 38.2486 4.35277 38.2137 4.04499 37.8625Z" fill="#FCCC80"/>
<path d="M8.8916 43.0255C8.50168 42.769 8.39339 42.2451 8.64977 41.8551C11.6706 37.2613 17.1646 36.1713 17.397 36.1272C17.8558 36.04 18.2978 36.3412 18.385 36.7997C18.4721 37.2578 18.1716 37.6997 17.7138 37.7874C17.6638 37.7971 12.6816 38.8 10.062 42.7837C9.80586 43.1732 9.28207 43.2822 8.8916 43.0255Z" fill="#FCCC80"/>
<path d="M50.7624 37.9412C45.6154 33.4306 38.3092 34.6824 38.236 34.6956C37.7771 34.7785 37.3373 34.4729 37.2547 34.0135C37.172 33.5542 37.4774 33.1148 37.9368 33.0322C38.2683 32.9726 46.1236 31.6287 51.8763 36.6701C52.2273 36.9777 52.2625 37.5117 51.9549 37.8627C51.6473 38.2135 51.1135 38.2489 50.7624 37.9412Z" fill="#FCCC80"/>
<path d="M45.9379 42.7837C43.3062 38.7816 38.3373 37.7971 38.2873 37.7877C37.8288 37.7006 37.5277 37.2582 37.6149 36.7997C37.7019 36.3412 38.144 36.0403 38.6029 36.1273C38.8353 36.1713 44.3293 37.2614 47.3501 41.8551C47.6066 42.245 47.4983 42.7691 47.1083 43.0255C46.7186 43.2818 46.1945 43.174 45.9379 42.7837Z" fill="#FCCC80"/>
<path d="M28 36.1448C28 36.1448 27.6 38.3846 25.78 39.0619L25.947 41.1675C25.983 41.6214 26.3618 41.9713 26.8171 41.9713H29.1826C29.638 41.9713 30.0167 41.6213 30.0527 41.1675L30.2197 39.0619C28.3999 38.3846 28 36.1448 28 36.1448Z" fill="#FEF0DB"/>
<path d="M35.0898 35.7138C34.6423 35.5881 34.1766 35.8492 34.0479 36.2958C34.0231 36.3821 33.4148 38.4094 31.3322 38.4094C29.4691 38.4094 28.9332 36.4481 28.845 36.0579V33.4488C28.845 32.9821 28.4667 32.6038 28 32.6038C27.5333 32.6038 27.155 32.9821 27.155 33.4488V36.0615C27.0694 36.4543 26.5491 38.4094 24.6678 38.4094C22.5899 38.4094 21.9797 36.391 21.9523 36.2965C21.8268 35.8489 21.3631 35.5865 20.9146 35.71C20.4646 35.8338 20.2001 36.299 20.3239 36.749C20.6427 37.9079 21.9609 40.0996 24.6679 40.0996C26.2742 40.0996 27.3418 39.2544 28.0002 38.2886C28.6586 39.2543 29.7261 40.0996 31.3324 40.0996C34.0395 40.0996 35.3576 37.9078 35.6764 36.749C35.7994 36.3007 35.537 35.8398 35.0898 35.7138Z" fill="#FCCC80"/>
<path d="M26.9777 31.1106L28.5771 34.2204H29.6993C30.9126 33.4528 31.7441 32.005 31.7441 30.9772C31.7441 29.5679 30.182 29.465 28.2137 29.4596L26.9777 31.1106Z" fill="#FF9BA1"/>
<path d="M27.6547 30.9771C27.6547 29.9493 28.486 29.6166 29.6993 29.5097C29.1892 29.4647 28.612 29.4592 28 29.4592C25.9321 29.4592 24.2559 29.5172 24.2559 30.9771C24.2559 32.4371 25.9321 34.7464 28 34.7464C28.612 34.7464 29.1892 34.5431 29.6993 34.2203C28.486 33.4527 27.6547 32.0049 27.6547 30.9771Z" fill="#FF636E"/>
<path d="M30.5257 51.1682H29.9668L27.4597 54.1528L26.9245 55.3641L27.3819 55.9999H33.6694C32.738 53.8192 31.6753 52.1629 30.5257 51.1682Z" fill="#FEF0DB"/>
<path d="M30.5256 51.1682C29.7214 50.4724 28.8745 50.1 28 50.1C25.8751 50.1 23.9135 52.2938 22.3305 56H27.3818C28.3132 53.8193 29.3759 52.1629 30.5256 51.1682Z" fill="#FEE6C1"/>
</svg>
