<svg width="29" height="24" viewBox="0 0 29 24" fill="none" xmlns="http://www.w3.org/2000/svg">
<path d="M14.4772 24C12.3632 24 10.2513 23.4925 8.15337 22.4775H8.15137C7.13836 21.988 6.485 20.937 6.485 19.8041C6.485 15.5083 10.0695 12.0117 14.4772 12.0117C18.8848 12.0117 22.4693 15.5083 22.4693 19.8041C22.4693 20.937 21.816 21.988 20.803 22.4775C18.703 23.4945 16.5911 24 14.4772 24Z" fill="#0E7A81"/>
<path d="M7.41809 6.08556C6.91658 3.66194 7.47004 0.840702 9.49805 0.135393C11.0425 -0.406076 13.3083 0.622916 14.0456 4.19541C14.5471 6.61904 13.9936 9.44027 11.9656 10.1436C10.4072 10.687 8.15337 9.64207 7.41809 6.08556Z" fill="#0E7A81"/>
<path d="M17.1465 10.1436C15.1185 9.44027 14.5651 6.61904 15.0666 4.19541C15.8019 0.6369 18.0577 -0.408076 19.6141 0.135391C21.6421 0.838702 22.1956 3.66193 21.6941 6.08556C20.9588 9.64207 18.705 10.687 17.1465 10.1436Z" fill="#0E7A81"/>
<path d="M0.74263 11.6341C-0.392258 9.75996 -0.298351 7.2684 1.52586 6.26339C3.16226 5.36627 5.39807 6.23941 6.62087 8.25743C7.75575 10.1296 7.66185 12.6232 5.83763 13.6282C4.08136 14.5912 1.85954 13.4743 0.74263 11.6341Z" fill="#0E7A81"/>
<path d="M23.1167 13.6262C21.2925 12.6212 21.1986 10.1296 22.3335 8.25543C23.5563 6.23941 25.7901 5.36227 27.4285 6.26139C29.2527 7.2664 29.3466 9.75796 28.2117 11.6321C27.0948 13.4743 24.873 14.5912 23.1167 13.6262Z" fill="#0E7A81"/>
</svg>
