<svg width="47" height="32" viewBox="0 0 47 32" fill="none" xmlns="http://www.w3.org/2000/svg">
<path fill-rule="evenodd" clip-rule="evenodd" d="M45.737 4.9964C45.2134 3.03268 43.6642 1.48374 41.6934 0.952823C38.1298 0 23.8316 0 23.8316 0C23.8316 0 9.54078 0 5.96985 0.952823C4.00632 1.47641 2.45718 3.02554 1.92627 4.9964C0.97345 8.56 0.97345 15.9999 0.97345 15.9999C0.97345 15.9999 0.97345 23.44 1.92627 27.0036C2.44986 28.9673 3.99899 30.5163 5.96985 31.0472C9.54078 32 23.8316 32 23.8316 32C23.8316 32 38.1298 32 41.6934 31.0472C43.6571 30.5236 45.206 28.9745 45.737 27.0036C46.6898 23.44 46.6898 16.0001 46.6898 16.0001C46.6898 16.0001 46.6898 8.56 45.737 4.9964Z" fill="#FF0000"/>
<path fill-rule="evenodd" clip-rule="evenodd" d="M19.2645 22.8582L31.1407 15.9999L19.2645 9.14185V22.8582Z" fill="white"/>
</svg>
